<mxfile host="app.diagrams.net" agent="Mozilla/5.0 (Windows NT 10.0; Win64; x64) AppleWebKit/537.36 (KHTML, like Gecko) Chrome/141.0.0.0 Safari/537.36 Edg/141.0.0.0" version="28.2.5">
  <diagram name="Trang-1" id="_oHHS1JjryRtInt9zbec">
    <mxGraphModel dx="1273" dy="570" grid="1" gridSize="10" guides="1" tooltips="1" connect="1" arrows="1" fold="1" page="1" pageScale="1" pageWidth="3300" pageHeight="4681" math="0" shadow="0">
      <root>
        <mxCell id="0" />
        <mxCell id="1" parent="0" />
        <mxCell id="EAGnOAl5UtZuwdQhWTvh-3" value="" style="edgeStyle=orthogonalEdgeStyle;rounded=0;orthogonalLoop=1;jettySize=auto;html=1;" edge="1" parent="1" source="EAGnOAl5UtZuwdQhWTvh-1" target="EAGnOAl5UtZuwdQhWTvh-2">
          <mxGeometry relative="1" as="geometry" />
        </mxCell>
        <mxCell id="EAGnOAl5UtZuwdQhWTvh-1" value="Start" style="strokeWidth=2;html=1;shape=mxgraph.flowchart.start_1;whiteSpace=wrap;" vertex="1" parent="1">
          <mxGeometry x="450" y="130" width="100" height="60" as="geometry" />
        </mxCell>
        <mxCell id="EAGnOAl5UtZuwdQhWTvh-5" value="" style="edgeStyle=orthogonalEdgeStyle;rounded=0;orthogonalLoop=1;jettySize=auto;html=1;" edge="1" parent="1" source="EAGnOAl5UtZuwdQhWTvh-2" target="EAGnOAl5UtZuwdQhWTvh-4">
          <mxGeometry relative="1" as="geometry" />
        </mxCell>
        <mxCell id="EAGnOAl5UtZuwdQhWTvh-2" value="Nhập a, b" style="shape=parallelogram;html=1;strokeWidth=2;perimeter=parallelogramPerimeter;whiteSpace=wrap;rounded=1;arcSize=12;size=0.23;" vertex="1" parent="1">
          <mxGeometry x="410" y="220" width="180" height="60" as="geometry" />
        </mxCell>
        <mxCell id="EAGnOAl5UtZuwdQhWTvh-7" value="" style="edgeStyle=orthogonalEdgeStyle;rounded=0;orthogonalLoop=1;jettySize=auto;html=1;" edge="1" parent="1" source="EAGnOAl5UtZuwdQhWTvh-4" target="EAGnOAl5UtZuwdQhWTvh-6">
          <mxGeometry relative="1" as="geometry" />
        </mxCell>
        <mxCell id="EAGnOAl5UtZuwdQhWTvh-10" value="" style="edgeStyle=orthogonalEdgeStyle;rounded=0;orthogonalLoop=1;jettySize=auto;html=1;" edge="1" parent="1" source="EAGnOAl5UtZuwdQhWTvh-4" target="EAGnOAl5UtZuwdQhWTvh-9">
          <mxGeometry relative="1" as="geometry" />
        </mxCell>
        <mxCell id="EAGnOAl5UtZuwdQhWTvh-4" value="a &amp;gt; b ?&lt;div&gt;&lt;br&gt;&lt;/div&gt;" style="strokeWidth=2;html=1;shape=mxgraph.flowchart.decision;whiteSpace=wrap;" vertex="1" parent="1">
          <mxGeometry x="450" y="320" width="100" height="100" as="geometry" />
        </mxCell>
        <mxCell id="EAGnOAl5UtZuwdQhWTvh-6" value="In ra b" style="shape=parallelogram;html=1;strokeWidth=2;perimeter=parallelogramPerimeter;whiteSpace=wrap;rounded=1;arcSize=12;size=0.23;" vertex="1" parent="1">
          <mxGeometry x="220" y="340" width="100" height="60" as="geometry" />
        </mxCell>
        <mxCell id="EAGnOAl5UtZuwdQhWTvh-8" value="True" style="text;html=1;align=center;verticalAlign=middle;whiteSpace=wrap;rounded=0;" vertex="1" parent="1">
          <mxGeometry x="360" y="340" width="60" height="30" as="geometry" />
        </mxCell>
        <mxCell id="EAGnOAl5UtZuwdQhWTvh-9" value="In ra b" style="shape=parallelogram;perimeter=parallelogramPerimeter;whiteSpace=wrap;html=1;fixedSize=1;" vertex="1" parent="1">
          <mxGeometry x="640" y="340" width="120" height="60" as="geometry" />
        </mxCell>
        <mxCell id="EAGnOAl5UtZuwdQhWTvh-11" value="False" style="text;html=1;align=center;verticalAlign=middle;whiteSpace=wrap;rounded=0;" vertex="1" parent="1">
          <mxGeometry x="570" y="340" width="60" height="30" as="geometry" />
        </mxCell>
        <mxCell id="EAGnOAl5UtZuwdQhWTvh-12" value="End" style="strokeWidth=2;html=1;shape=mxgraph.flowchart.start_1;whiteSpace=wrap;" vertex="1" parent="1">
          <mxGeometry x="450" y="520" width="100" height="60" as="geometry" />
        </mxCell>
        <mxCell id="EAGnOAl5UtZuwdQhWTvh-13" style="edgeStyle=orthogonalEdgeStyle;rounded=0;orthogonalLoop=1;jettySize=auto;html=1;entryX=1;entryY=0.5;entryDx=0;entryDy=0;entryPerimeter=0;" edge="1" parent="1" source="EAGnOAl5UtZuwdQhWTvh-9" target="EAGnOAl5UtZuwdQhWTvh-12">
          <mxGeometry relative="1" as="geometry">
            <Array as="points">
              <mxPoint x="700" y="550" />
            </Array>
          </mxGeometry>
        </mxCell>
        <mxCell id="EAGnOAl5UtZuwdQhWTvh-14" style="edgeStyle=orthogonalEdgeStyle;rounded=0;orthogonalLoop=1;jettySize=auto;html=1;entryX=0;entryY=0.5;entryDx=0;entryDy=0;entryPerimeter=0;" edge="1" parent="1" source="EAGnOAl5UtZuwdQhWTvh-6" target="EAGnOAl5UtZuwdQhWTvh-12">
          <mxGeometry relative="1" as="geometry">
            <Array as="points">
              <mxPoint x="260" y="550" />
            </Array>
          </mxGeometry>
        </mxCell>
      </root>
    </mxGraphModel>
  </diagram>
</mxfile>
